<?xml version="1.0" standalone="no"?>
<!DOCTYPE svg PUBLIC "-//W3C//DTD SVG 20010904//EN"
 "http://www.w3.org/TR/2001/REC-SVG-20010904/DTD/svg10.dtd">
<svg width="60" height="25" viewBox="0 0 60 25" fill="none" xmlns="http://www.w3.org/2000/svg">
<path d="M13.1516 7.72301C13.0806 6.94176 12.7646 6.33452 12.2035 5.90128C11.6495 5.46094 10.8576 5.24077 9.82777 5.24077C9.14595 5.24077 8.57777 5.32955 8.12322 5.5071C7.66868 5.68466 7.32777 5.92969 7.1005 6.24219C6.87322 6.54759 6.75604 6.89915 6.74893 7.29688C6.73473 7.62358 6.79865 7.91122 6.9407 8.1598C7.08984 8.40838 7.30291 8.62855 7.5799 8.82031C7.86399 9.00497 8.2049 9.16832 8.60263 9.31037C9.00036 9.45241 9.4478 9.5767 9.94496 9.68324L11.82 10.1094C12.8995 10.3438 13.8512 10.6562 14.6751 11.0469C15.506 11.4375 16.2021 11.9027 16.7631 12.4425C17.3313 12.9822 17.761 13.6037 18.0522 14.3068C18.3434 15.0099 18.4925 15.7983 18.4996 16.6719C18.4925 18.0497 18.1445 19.2322 17.4556 20.2195C16.7667 21.2067 15.7759 21.9631 14.4833 22.4886C13.1978 23.0142 11.646 23.277 9.82777 23.277C8.00249 23.277 6.41158 23.0036 5.05504 22.4567C3.69851 21.9098 2.64382 21.0788 1.89098 19.9638C1.13814 18.8487 0.751065 17.4389 0.729759 15.7344H5.77947C5.82209 16.4375 6.0103 17.0234 6.34411 17.4922C6.67791 17.9609 7.13601 18.3161 7.7184 18.5575C8.30788 18.799 8.9897 18.9197 9.76385 18.9197C10.4741 18.9197 11.0778 18.8239 11.5749 18.6321C12.0792 18.4403 12.4663 18.174 12.7362 17.8331C13.006 17.4922 13.1445 17.1016 13.1516 16.6612C13.1445 16.2493 13.0167 15.8977 12.7681 15.6065C12.5195 15.3082 12.136 15.0526 11.6175 14.8395C11.1062 14.6193 10.4528 14.4169 9.65732 14.2322L7.37749 13.6996C5.48828 13.2663 4.00036 12.5668 2.91371 11.6009C1.82706 10.6278 1.28729 9.31392 1.29439 7.65909C1.28729 6.30966 1.6495 5.12713 2.38104 4.11151C3.11257 3.09588 4.12465 2.30398 5.41726 1.7358C6.70987 1.16761 8.18359 0.883522 9.83842 0.883522C11.5288 0.883522 12.9954 1.17116 14.2383 1.74645C15.4883 2.31463 16.4577 3.11364 17.1467 4.14347C17.8356 5.1733 18.1871 6.36648 18.2014 7.72301H13.1516ZM29.5046 15.1591H33.766L35.5771 17.4709L37.9528 20.1982L41.6069 24.7045H36.8342L34.2773 21.647L32.7646 19.4737L29.5046 15.1591ZM41.756 12.0909C41.756 14.4915 41.2944 16.5263 40.3711 18.1953C39.4478 19.8643 38.1978 21.1321 36.6211 21.9986C35.0515 22.8651 33.2901 23.2983 31.337 23.2983C29.3768 23.2983 27.6119 22.8615 26.0423 21.9879C24.4727 21.1143 23.2262 19.8466 22.3029 18.1847C21.3867 16.5156 20.9286 14.4844 20.9286 12.0909C20.9286 9.69034 21.3867 7.65554 22.3029 5.98651C23.2262 4.31747 24.4727 3.04972 26.0423 2.18324C27.6119 1.31676 29.3768 0.883522 31.337 0.883522C33.2901 0.883522 35.0515 1.31676 36.6211 2.18324C38.1978 3.04972 39.4478 4.31747 40.3711 5.98651C41.2944 7.65554 41.756 9.69034 41.756 12.0909ZM36.3654 12.0909C36.3654 10.6705 36.163 9.47017 35.7582 8.49006C35.3604 7.50994 34.7852 6.76775 34.0323 6.26349C33.2866 5.75923 32.3881 5.5071 31.337 5.5071C30.293 5.5071 29.3945 5.75923 28.6417 6.26349C27.8888 6.76775 27.31 7.50994 26.9052 8.49006C26.5075 9.47017 26.3086 10.6705 26.3086 12.0909C26.3086 13.5114 26.5075 14.7116 26.9052 15.6918C27.31 16.6719 27.8888 17.4141 28.6417 17.9183C29.3945 18.4226 30.293 18.6747 31.337 18.6747C32.3881 18.6747 33.2866 18.4226 34.0323 17.9183C34.7852 17.4141 35.3604 16.6719 35.7582 15.6918C36.163 14.7116 36.3654 13.5114 36.3654 12.0909ZM44.8642 23V1.18182H50.1376V18.7173H59.2143V23H44.8642Z" fill="#E8EAED"/>
</svg>
