<?xml version="1.0" standalone="no"?>
<!DOCTYPE svg PUBLIC "-//W3C//DTD SVG 20010904//EN"
 "http://www.w3.org/TR/2001/REC-SVG-20010904/DTD/svg10.dtd">
<svg width="141" height="29" viewBox="0 0 141 29" fill="none" xmlns="http://www.w3.org/2000/svg">
<path d="M9.24688 23C7.64688 23 6.45688 22.58 5.67688 21.74C4.89688 20.9 4.50688 19.83 4.50688 18.53V10.97H0.306875V7.52H3.03688C3.69688 7.52 4.16688 7.39 4.44688 7.13C4.72688 6.87 4.86688 6.39 4.86688 5.69V2.06H8.94688V7.52H14.9769V10.97H8.94688V19.55H14.9769V23H9.24688ZM18.9852 0.8H23.4252V10.34H23.6052C23.7852 9.9 24.0052 9.49 24.2652 9.11C24.5252 8.73 24.8352 8.4 25.1952 8.12C25.5752 7.82 26.0052 7.59 26.4852 7.43C26.9852 7.25 27.5452 7.16 28.1652 7.16C28.9052 7.16 29.5852 7.29 30.2052 7.55C30.8252 7.79 31.3552 8.16 31.7952 8.66C32.2352 9.16 32.5752 9.77 32.8152 10.49C33.0752 11.21 33.2052 12.04 33.2052 12.98V23H28.7652V13.58C28.7652 11.58 27.8952 10.58 26.1552 10.58C25.8152 10.58 25.4752 10.63 25.1352 10.73C24.8152 10.81 24.5252 10.95 24.2652 11.15C24.0052 11.33 23.7952 11.56 23.6352 11.84C23.4952 12.12 23.4252 12.45 23.4252 12.83V23H18.9852V0.8ZM37.2434 19.55H40.8134V10.97H37.2434V7.52H45.2534V11.9H45.4634C45.6034 11.34 45.7934 10.8 46.0334 10.28C46.2934 9.74 46.6134 9.27 46.9934 8.87C47.3934 8.45 47.8734 8.12 48.4334 7.88C48.9934 7.64 49.6534 7.52 50.4134 7.52H51.8834V11.6H48.5834C47.4834 11.6 46.6534 11.93 46.0934 12.59C45.5334 13.23 45.2534 14.02 45.2534 14.96V19.55H50.3534V23H37.2434V19.55ZM62.4317 23.36C59.8317 23.36 57.8617 22.64 56.5217 21.2C55.1817 19.76 54.5117 17.8 54.5117 15.32C54.5117 14.06 54.6817 12.93 55.0217 11.93C55.3817 10.91 55.8817 10.05 56.5217 9.35C57.1817 8.63 57.9717 8.09 58.8917 7.73C59.8317 7.35 60.8817 7.16 62.0417 7.16C63.2017 7.16 64.2417 7.35 65.1617 7.73C66.0817 8.09 66.8617 8.61 67.5017 9.29C68.1417 9.97 68.6317 10.8 68.9717 11.78C69.3317 12.74 69.5117 13.82 69.5117 15.02V16.34H58.9217V16.61C58.9217 17.61 59.2317 18.42 59.8517 19.04C60.4717 19.64 61.3817 19.94 62.5817 19.94C63.5017 19.94 64.2917 19.77 64.9517 19.43C65.6117 19.07 66.1817 18.6 66.6617 18.02L69.0617 20.63C68.4617 21.37 67.6217 22.01 66.5417 22.55C65.4617 23.09 64.0917 23.36 62.4317 23.36ZM62.0717 10.34C61.1117 10.34 60.3417 10.64 59.7617 11.24C59.2017 11.82 58.9217 12.61 58.9217 13.61V13.85H65.1617V13.61C65.1617 12.59 64.8817 11.79 64.3217 11.21C63.7817 10.63 63.0317 10.34 62.0717 10.34ZM80.42 23.36C77.82 23.36 75.85 22.64 74.51 21.2C73.17 19.76 72.5 17.8 72.5 15.32C72.5 14.06 72.67 12.93 73.01 11.93C73.37 10.91 73.87 10.05 74.51 9.35C75.17 8.63 75.96 8.09 76.88 7.73C77.82 7.35 78.87 7.16 80.03 7.16C81.19 7.16 82.23 7.35 83.15 7.73C84.07 8.09 84.85 8.61 85.49 9.29C86.13 9.97 86.62 10.8 86.96 11.78C87.32 12.74 87.5 13.82 87.5 15.02V16.34H76.91V16.61C76.91 17.61 77.22 18.42 77.84 19.04C78.46 19.64 79.37 19.94 80.57 19.94C81.49 19.94 82.28 19.77 82.94 19.43C83.6 19.07 84.17 18.6 84.65 18.02L87.05 20.63C86.45 21.37 85.61 22.01 84.53 22.55C83.45 23.09 82.08 23.36 80.42 23.36ZM80.06 10.34C79.1 10.34 78.33 10.64 77.75 11.24C77.19 11.82 76.91 12.61 76.91 13.61V13.85H83.15V13.61C83.15 12.59 82.87 11.79 82.31 11.21C81.77 10.63 81.02 10.34 80.06 10.34ZM97.9883 23.36C96.8683 23.36 96.0583 23.12 95.5583 22.64C95.0783 22.14 94.8383 21.55 94.8383 20.87V19.82C94.8383 19.14 95.0783 18.56 95.5583 18.08C96.0583 17.58 96.8683 17.33 97.9883 17.33C99.1083 17.33 99.9083 17.58 100.388 18.08C100.888 18.56 101.138 19.14 101.138 19.82V20.87C101.138 21.55 100.888 22.14 100.388 22.64C99.9083 23.12 99.1083 23.36 97.9883 23.36ZM109.737 25.55H115.677V10.97H109.677V7.52H120.117V24.53C120.117 25.83 119.727 26.9 118.947 27.74C118.167 28.58 116.987 29 115.407 29H109.737V25.55ZM117.897 5.54C116.897 5.54 116.197 5.34 115.797 4.94C115.417 4.52 115.227 4.02 115.227 3.44V2.57C115.227 1.97 115.417 1.47 115.797 1.07C116.197 0.669999 116.897 0.469999 117.897 0.469999C118.877 0.469999 119.567 0.669999 119.967 1.07C120.367 1.47 120.567 1.97 120.567 2.57V3.44C120.567 4.02 120.367 4.52 119.967 4.94C119.567 5.34 118.877 5.54 117.897 5.54ZM133.785 23.36C132.065 23.36 130.565 23.1 129.285 22.58C128.025 22.06 127.075 21.35 126.435 20.45L128.925 18.14C129.525 18.8 130.225 19.32 131.025 19.7C131.845 20.06 132.775 20.24 133.815 20.24C134.695 20.24 135.385 20.11 135.885 19.85C136.385 19.57 136.635 19.15 136.635 18.59C136.635 18.15 136.465 17.85 136.125 17.69C135.785 17.51 135.315 17.37 134.715 17.27L132.225 16.88C131.525 16.78 130.875 16.63 130.275 16.43C129.675 16.21 129.155 15.92 128.715 15.56C128.275 15.2 127.925 14.76 127.665 14.24C127.405 13.72 127.275 13.09 127.275 12.35C127.275 10.73 127.895 9.46 129.135 8.54C130.375 7.62 132.115 7.16 134.355 7.16C135.875 7.16 137.165 7.37 138.225 7.79C139.305 8.19 140.165 8.77 140.805 9.53L138.585 12.05C138.125 11.55 137.535 11.13 136.815 10.79C136.095 10.45 135.225 10.28 134.205 10.28C132.485 10.28 131.625 10.8 131.625 11.84C131.625 12.3 131.795 12.62 132.135 12.8C132.475 12.96 132.945 13.09 133.545 13.19L136.005 13.58C136.705 13.68 137.355 13.84 137.955 14.06C138.555 14.26 139.075 14.54 139.515 14.9C139.975 15.26 140.335 15.7 140.595 16.22C140.855 16.74 140.985 17.37 140.985 18.11C140.985 19.73 140.355 21.01 139.095 21.95C137.855 22.89 136.085 23.36 133.785 23.36Z" fill="#E8EAED"/>
</svg>
